<?xml version="1.0" standalone="no"?>
<!DOCTYPE svg PUBLIC "-//W3C//DTD SVG 20010904//EN"
 "http://www.w3.org/TR/2001/REC-SVG-20010904/DTD/svg10.dtd">
<svg version="1.0" xmlns="http://www.w3.org/2000/svg"
 width="512.000000pt" height="512.000000pt" viewBox="0 0 512.000000 512.000000"
 preserveAspectRatio="xMidYMid meet">

<g transform="translate(0.000000,512.000000) scale(0.100000,-0.100000)"
fill="#000000" stroke="none">
<path d="M2302 4840 c-354 -49 -604 -254 -696 -572 -35 -122 -47 -252 -40
-435 5 -124 3 -178 -10 -251 -54 -308 -276 -492 -630 -523 -151 -12 -236 -37
-316 -90 -229 -153 -221 -389 19 -573 82 -63 233 -146 405 -220 175 -77 187
-84 227 -139 80 -107 110 -240 90 -392 -15 -108 -39 -188 -107 -346 -84 -197
-107 -285 -108 -409 -1 -96 2 -111 28 -167 33 -72 97 -137 171 -173 43 -21 64
-25 146 -25 l96 0 139 70 139 70 120 0 c111 -1 126 -3 200 -33 45 -17 141 -69
215 -113 248 -151 305 -182 385 -212 69 -27 94 -31 180 -31 86 -1 107 2 148
23 91 45 150 117 288 356 82 141 173 236 241 253 53 13 85 9 259 -37 147 -39
213 -46 283 -31 151 31 237 191 223 419 -7 120 -32 214 -109 411 -122 313
-147 414 -148 591 0 214 60 353 231 535 180 192 260 315 295 454 36 145 -19
261 -155 324 -50 23 -43 22 -477 17 -292 -3 -411 25 -505 119 -86 86 -124 172
-204 460 -27 98 -64 201 -90 255 -97 199 -266 336 -491 396 -89 24 -331 34
-442 19z m428 -120 c122 -35 205 -84 296 -175 99 -99 137 -172 194 -375 90
-319 137 -427 226 -520 103 -109 214 -146 469 -159 88 -5 201 -5 250 0 132 11
247 11 286 -2 131 -44 160 -150 84 -308 -49 -102 -85 -151 -204 -276 -234
-247 -300 -406 -288 -695 6 -167 29 -256 127 -511 39 -101 83 -222 96 -269 34
-115 42 -245 20 -330 -23 -89 -44 -121 -96 -148 -59 -31 -122 -26 -307 24
-174 47 -247 49 -327 10 -94 -46 -165 -129 -271 -316 -136 -239 -202 -299
-326 -300 -107 0 -204 41 -441 189 -262 162 -357 201 -519 208 -130 7 -180 -6
-332 -85 -94 -49 -116 -57 -176 -60 -61 -4 -75 -1 -121 24 -134 73 -170 210
-109 410 12 38 49 139 84 224 86 212 109 305 109 450 0 90 -4 130 -21 185 -48
153 -141 263 -265 312 -151 59 -406 193 -480 252 -140 111 -177 213 -113 316
35 56 118 117 190 139 28 8 106 20 173 26 370 33 618 222 704 537 19 69 21
108 23 338 3 285 13 364 64 486 94 225 302 377 571 418 111 17 343 7 430 -19z"/>
<path d="M2687 3975 c-77 -27 -127 -100 -127 -184 0 -87 37 -146 115 -182 195
-90 371 160 222 316 -60 62 -131 79 -210 50z m113 -100 c37 -19 50 -43 50 -93
0 -51 -43 -92 -97 -92 -96 0 -130 138 -45 184 35 19 56 20 92 1z"/>
<path d="M2085 3846 c-38 -17 -90 -72 -104 -109 -18 -48 -13 -120 12 -168 63
-119 219 -141 313 -44 125 129 37 336 -142 335 -27 -1 -62 -7 -79 -14z m129
-97 c14 -7 32 -27 41 -46 15 -31 15 -40 3 -71 -8 -22 -27 -44 -47 -55 -64 -38
-141 10 -141 88 0 72 75 115 144 84z"/>
<path d="M2470 3382 c-72 -38 -118 -181 -107 -328 7 -100 24 -148 71 -201 52
-59 104 -83 184 -83 73 0 114 15 166 60 58 51 80 103 81 185 0 61 -5 78 -35
135 -69 129 -212 250 -295 250 -17 0 -46 -8 -65 -18z m109 -96 c43 -23 136
-129 166 -191 21 -43 26 -65 22 -96 -20 -148 -215 -179 -282 -44 -15 31 -20
61 -20 130 0 108 9 154 36 189 23 30 38 32 78 12z"/>
</g>
</svg>
